{"title":"Transformers.Age.Of.Extinction.2014.AVI.BRRip.1080p.DivX.NLSub.{","uid":11108267,"size":5449398097,"categoryP":"video","categoryS":"hd___movies","magnet":"?xt=urn:btih:28263713fd3f570059598eb4399efca851e4966e&amp;dn=Transformers.Age.Of.Extinction.2014.AVI.BRRip.1080p.DivX.NLSub.%7B&amp;tr=udp%3A%2F%2Ftracker.openbittorrent.com%3A80&amp;tr=udp%3A%2F%2Fopen.demonii.com%3A1337&amp;tr=udp%3A%2F%2Ftracker.coppersurfer.tk%3A6969&amp;tr=udp%3A%2F%2Fexodus.desync.com%3A6969","seeders":8,"leechers":0,"uploader":"HOLLANDmovies","files":-1,"time":1411756113,"description":"Transformers: Age of Extinction DivX 1080p \n\nINFO\n\nTransformers: Age of Extinction (2014)\n165 min - Action | Adventure | Sci-Fi\n\nA mechanic and his family join the Autobots as they are targeted by a bounty hunter from another world.\n\nDirector: Michael Bay\nWriter: Ehren Kruger\nStars: Mark Wahlberg, Nicola Peltz, Jack Reynor \n &lt;a href=&quot;\nhttp://www.ephotobay.com/image/transformers-age-of-extinction-2014-avi-brrip-10.jpg&quot; rel=&quot;nofollow&quot; target=&quot;_NEW&quot;&gt;\nhttp://www.ephotobay.com/image/transformers-age-of-extinction-2014-avi-brrip-10.jpg&lt;/a&gt; &lt;a href=&quot;\nhttp://www.ephotobay.com/image/transformers-age-of-extinction-2014-avi-brrip--1.jpg&quot; rel=&quot;nofollow&quot; target=&quot;_NEW&quot;&gt;\nhttp://www.ephotobay.com/image/transformers-age-of-extinction-2014-avi-brrip--1.jpg&lt;/a&gt; &lt;a href=&quot;\nhttp://www.ephotobay.com/image/transformers-age-of-extinction-2014-avi-brrip--2.jpg&quot; rel=&quot;nofollow&quot; target=&quot;_NEW&quot;&gt;\nhttp://www.ephotobay.com/image/transformers-age-of-extinction-2014-avi-brrip--2.jpg&lt;/a&gt;\n\nGENERAL:\nComplete name : Transformers.Age.Of.Extinction.2014.AVI.BRRip.1080p.DivX.NLSub.{Th3Sp3cialist}.avi\nFormat : AVI\nFormat/Info : Audio Video Interleave\nFormat profile : OpenDML\nFile size : 5.05 GiB\nDuration : 2h 45mn\nOverall bit rate : 4 375 Kbps\n\nVideo\nID : 0\nSource : Transformers.Age.of.Extinction.2014.1080p.BluRay.H264.AAC-RARBG\nFormat : MPEG-4 Visual\nFormat profile : Advanced Simple@L5\nFormat settings, BVOP : No\nFormat settings, QPel : No\nFormat settings, GMC : No warppoints\nFormat settings, Matrix : Default (H.263)\nCodec ID : XVID\nCodec ID/Hint : XviD\nDuration : 2h 45mn\nBit rate : 4 046 Kbps\nWidth : 1 920 pixels\nHeight : 1 080 pixels\nDisplay aspect ratio : 16:9\nFrame rate : 24.000 fps\nColor space : YUV\nChroma subsampling : 4:2:0\nBit depth : 8 bits\nScan type : Progressive\nCompression mode : Lossy\nBits/(Pixel*Frame) : 0.081\nStream size : 4.67 GiB (92%)\nWriting library : XviD 62\n\nAudio\nID : 1\nFormat : MPEG Audio\nFormat version : Version 1\nFormat profile : Layer 3\nCodec ID : 55\nCodec ID/Hint : MP3\nDuration : 2h 45mn\nBit rate mode : Constant\nBit rate : 320 Kbps\nChannel(s) : 2 channels\nSampling rate : 48.0 KHz\nCompression mode : Lossy\nStream size : 378 MiB (7%)\nAlignment : Aligned on interleaves\nInterleave, duration : 42 ms (1.00 video frame)","torrent":{"xt":"urn:btih:28263713fd3f570059598eb4399efca851e4966e","amp;dn":"Transformers.Age.Of.Extinction.2014.AVI.BRRip.1080p.DivX.NLSub.%7B","amp;tr":["udp%3A%2F%2Ftracker.openbittorrent.com%3A80","udp%3A%2F%2Fopen.demonii.com%3A1337","udp%3A%2F%2Ftracker.coppersurfer.tk%3A6969","udp%3A%2F%2Fexodus.desync.com%3A6969"],"infoHash":"28263713fd3f570059598eb4399efca851e4966e","infoHashBuffer":{"type":"Buffer","data":[40,38,55,19,253,63,87,0,89,89,142,180,57,158,252,168,81,228,150,110]},"announce":[],"urlList":[]}}